<svg xmlns="http://www.w3.org/2000/svg" xmlns:xlink="http://www.w3.org/1999/xlink" width="1000" zoomAndPan="magnify" viewBox="0 0 750 749.999995" height="1000" preserveAspectRatio="xMidYMid meet" version="1.0"><defs><clipPath id="f4563e1370"><path d="M 80 0 L 667 0 L 667 749 L 80 749 Z M 80 0 " clip-rule="nonzero"/></clipPath><clipPath id="41f1a17aed"><path d="M 813.644531 97.890625 L 313.269531 -86.441406 L 29.125 684.886719 L 529.5 869.21875 Z M 813.644531 97.890625 " clip-rule="nonzero"/></clipPath><clipPath id="6745a13371"><path d="M 813.644531 97.890625 L 313.269531 -86.441406 L 29.125 684.886719 L 529.5 869.21875 Z M 813.644531 97.890625 " clip-rule="nonzero"/></clipPath><clipPath id="4f83378bd5"><path d="M 813.644531 97.890625 L 313.269531 -86.441406 L 29.125 684.886719 L 529.5 869.21875 Z M 813.644531 97.890625 " clip-rule="nonzero"/></clipPath><clipPath id="9c9002ff2a"><path d="M 438 678 L 456 678 L 456 708 L 438 708 Z M 438 678 " clip-rule="nonzero"/></clipPath><clipPath id="e788abea9d"><path d="M 813.644531 97.890625 L 313.269531 -86.441406 L 29.125 684.886719 L 529.5 869.21875 Z M 813.644531 97.890625 " clip-rule="nonzero"/></clipPath><clipPath id="8fab7c22b0"><path d="M 813.644531 97.890625 L 313.269531 -86.441406 L 29.125 684.886719 L 529.5 869.21875 Z M 813.644531 97.890625 " clip-rule="nonzero"/></clipPath><clipPath id="ba315b321c"><path d="M 813.644531 97.890625 L 313.269531 -86.441406 L 29.125 684.886719 L 529.5 869.21875 Z M 813.644531 97.890625 " clip-rule="nonzero"/></clipPath></defs><g clip-path="url(#f4563e1370)"><g clip-path="url(#41f1a17aed)"><g clip-path="url(#6745a13371)"><g clip-path="url(#4f83378bd5)"><path fill="currentColor" d="M 118.84375 475.054688 C 117.464844 478.800781 117.832031 482.375 119.375 486.039062 C 130.695312 512.820312 141.945312 539.574219 158.613281 563.707031 C 168.761719 578.371094 175.765625 594.726562 182.074219 611.371094 C 183.214844 614.359375 183.503906 617.667969 184.492188 620.730469 C 186.050781 625.605469 184.011719 628.859375 180.476562 632.003906 C 174.417969 637.394531 167.058594 641.105469 161.140625 646.390625 C 154.28125 652.449219 147.0625 658.054688 139.492188 663.195312 C 124.472656 673.621094 109.398438 684.019531 93.003906 692.234375 C 88.589844 694.367188 84.785156 697.292969 81.59375 701.015625 C 81.484375 701.101562 81.386719 701.203125 81.300781 701.316406 C 81.21875 701.429688 81.148438 701.550781 81.09375 701.683594 C 81.039062 701.8125 81 701.949219 80.980469 702.085938 C 80.957031 702.226562 80.953125 702.367188 80.96875 702.507812 C 80.980469 702.648438 81.011719 702.785156 81.058594 702.917969 C 81.105469 703.050781 81.167969 703.175781 81.246094 703.292969 C 81.324219 703.414062 81.414062 703.519531 81.519531 703.613281 C 81.625 703.710938 81.738281 703.789062 81.863281 703.859375 C 82.636719 704.363281 84.015625 704.925781 84.617188 704.578125 C 97.226562 697.386719 109.828125 690.179688 122.28125 682.773438 C 135.722656 674.796875 148.652344 666.058594 161.070312 656.566406 C 164.882812 653.667969 166.550781 654.109375 170.976562 657.46875 C 175.726562 661.039062 179.96875 665.140625 183.699219 669.765625 C 197.015625 686.0625 211.386719 701.238281 229.726562 712.171875 C 236.171875 716.011719 241.816406 721.203125 248.273438 725 C 261.71875 732.980469 275.722656 739.292969 291.425781 742.3125 C 300.882812 744.132812 310.417969 745.90625 319.878906 747.9375 C 323.066406 748.632812 326.28125 748.769531 329.519531 748.359375 C 332.757812 747.945312 335.832031 747 338.742188 745.527344 C 340.761719 744.542969 341.480469 741.769531 339.742188 740.332031 C 321.507812 725.484375 309.550781 705.425781 295.304688 687.25 C 287.707031 677.554688 281.058594 667.019531 270.867188 659.476562 C 267.363281 656.886719 263.992188 654.246094 259.929688 652.757812 C 248.332031 648.484375 236.84375 643.949219 224.210938 643.183594 C 214.597656 642.609375 205.035156 641.078125 195.464844 639.859375 C 194.390625 639.695312 193.535156 639.171875 192.898438 638.289062 C 191.714844 636.308594 193.597656 635.640625 194.839844 634.898438 C 208.726562 626.53125 223.417969 619.8125 238.238281 613.277344 C 248.570312 608.742188 259.160156 604.753906 269.460938 600.132812 C 285.738281 592.726562 302.867188 587.875 320.058594 583.304688 C 329.96875 580.6875 339.835938 578.046875 349.484375 574.59375 C 353.695312 573.097656 357.175781 574.683594 358.707031 578.714844 C 360.160156 582.199219 361.238281 585.800781 361.9375 589.511719 C 363.574219 599.597656 365.171875 609.71875 366.144531 619.886719 C 367.570312 634.671875 371.949219 648.28125 380.355469 660.582031 C 385.210938 667.683594 387.886719 676.164062 394.171875 682.375 C 401.0625 689.175781 407.496094 696.496094 414.804688 702.785156 C 429.035156 715.125 444.792969 725.421875 460.667969 735.550781 C 466.050781 738.988281 471.714844 738.816406 477.546875 738.429688 C 477.921875 738.402344 478.304688 736.742188 478.46875 735.796875 C 478.488281 735.222656 478.296875 734.734375 477.886719 734.328125 C 470.074219 726.878906 463.890625 718.132812 458.136719 709.050781 C 457.675781 708.3125 456.25 708.179688 455.265625 707.773438 L 454.980469 707.925781 C 455.246094 709.414062 455.164062 711.082031 455.835938 712.355469 C 458.058594 716.578125 460.539062 720.675781 462.964844 724.796875 C 463.773438 726.175781 463.597656 726.953125 462.269531 726.828125 C 461.257812 726.742188 459.910156 726.601562 459.351562 725.9375 C 450.714844 715.757812 443.589844 704.707031 440.359375 691.542969 C 440.246094 690.476562 440.269531 689.414062 440.433594 688.359375 L 438.335938 678.140625 C 439.695312 675.242188 441.554688 672.449219 440.234375 668.988281 C 433.339844 650.898438 427.636719 632.328125 418.816406 614.902344 C 415.777344 608.875 412.109375 603.257812 407.8125 598.050781 C 403.515625 592.84375 398.695312 588.175781 393.351562 584.046875 C 387.519531 579.472656 381.652344 574.933594 374.984375 569.742188 C 388.09375 564.949219 400.746094 562.636719 413.535156 560.945312 C 422.050781 559.808594 430.46875 557.640625 439.207031 559.425781 C 441.816406 559.964844 444.300781 560.101562 446.773438 561.589844 C 452.058594 564.855469 457.628906 567.535156 463.480469 569.621094 C 469.332031 571.710938 475.339844 573.164062 481.5 573.980469 C 483.113281 574.15625 484.6875 574.511719 486.21875 575.050781 C 502.074219 580.835938 517.867188 579.035156 533.890625 575.449219 C 542.328125 573.59375 550.527344 570.980469 558.480469 567.605469 C 566.433594 564.230469 574.011719 560.152344 581.207031 555.371094 C 592.445312 547.910156 603.832031 540.714844 614.070312 531.917969 C 625.566406 522.019531 639.253906 515.386719 651.9375 507.253906 C 654.203125 505.800781 656.832031 504.875 658.988281 503.289062 C 661.582031 501.40625 663.957031 499.273438 666.101562 496.890625 C 667.09375 495.792969 660.769531 492.417969 656.5625 492.167969 C 654.953125 492.0625 653.347656 492.082031 651.738281 492.222656 C 616.855469 495.28125 581.773438 496.71875 547.265625 502.660156 C 526.621094 506.199219 506.101562 511.042969 487.539062 521.828125 C 477.292969 527.765625 466.664062 533.046875 456.273438 538.75 C 444.191406 545.378906 431.40625 550.578125 417.019531 552.3125 C 389.65625 555.640625 362.859375 561.550781 336.628906 570.03125 C 329.445312 572.351562 322.308594 574.882812 314.964844 576.6875 C 282.308594 584.710938 251.851562 598.496094 221.382812 612.199219 C 219.429688 613.074219 217.417969 613.796875 215.460938 614.59375 C 214.398438 612.507812 215.65625 611.378906 216.847656 610.28125 C 224.785156 602.988281 232.5625 595.503906 240.742188 588.5 C 248.496094 581.816406 255.859375 574.722656 262.832031 567.226562 C 272.398438 557.027344 282.574219 547.382812 292.304688 537.308594 C 302.035156 527.234375 311.753906 517.140625 319.792969 505.574219 C 321.597656 502.988281 324.4375 500.640625 327.753906 504.25 C 336.792969 505.339844 345.886719 506.109375 354.890625 507.578125 C 379.277344 511.550781 403.335938 509.371094 426.675781 502.230469 C 435.46875 499.515625 443.929688 496 452.054688 491.679688 C 460.183594 487.363281 467.832031 482.320312 475.007812 476.554688 C 480.058594 472.523438 484.90625 468.308594 489.847656 464.082031 C 492.730469 461.648438 495.972656 459.496094 498.347656 456.628906 C 509.71875 442.941406 522.367188 430.539062 535.609375 418.703125 C 537.773438 416.753906 536.660156 413.371094 533.976562 412.429688 C 531.65625 411.628906 529.265625 411.222656 526.808594 411.210938 C 524.355469 411.199219 521.960938 411.582031 519.632812 412.359375 C 502.019531 417.957031 483.839844 419.839844 465.664062 422.074219 C 454.300781 423.46875 443.949219 428.347656 433.386719 432.21875 C 408.25 441.449219 386.71875 456.609375 366.867188 474.316406 C 361.257812 479.3125 355.167969 483.730469 349.464844 488.675781 C 346.089844 491.601562 342.203125 493.261719 338.082031 494.597656 C 333.957031 495.933594 330.96875 495.746094 331.039062 494.171875 C 331.140625 491.730469 333.167969 490.675781 334.386719 489 C 347.679688 470.773438 361.015625 452.554688 374.207031 434.253906 C 383.613281 421.132812 392.410156 407.613281 399.417969 392.984375 C 401.960938 387.671875 405.335938 382.757812 408.332031 377.671875 C 415.972656 364.703125 423.800781 351.824219 429.382812 337.761719 C 430.179688 335.777344 431.046875 333.617188 432.492188 332.128906 C 437.191406 327.273438 439.128906 321.125 441.316406 315.03125 C 443.046875 310.179688 443.128906 310.257812 449.695312 311.15625 C 451.296875 311.28125 452.898438 311.320312 454.5 311.28125 C 462.117188 311.515625 468.804688 313.675781 475.8125 317.300781 C 486.824219 323.015625 497.761719 328.609375 507.789062 335.980469 C 510.355469 337.839844 513.496094 338.996094 516.472656 340.230469 C 526.5 344.226562 536.660156 347.878906 546.617188 352.039062 C 551.863281 354.226562 557.300781 355.679688 562.9375 356.394531 C 568.574219 357.109375 574.207031 357.0625 579.828125 356.25 C 588.875 355.0625 598.023438 354.574219 607.128906 353.867188 C 619.378906 352.890625 627.316406 344.386719 636.027344 337.351562 C 637.644531 336.042969 636.695312 333.324219 635.625 331.339844 C 634.253906 328.78125 631.898438 327.605469 629.359375 326.570312 C 605.734375 316.996094 584.449219 303.382812 564.214844 288.132812 C 552.640625 279.414062 540.128906 274.46875 525.644531 273.511719 C 517.042969 272.945312 508.464844 271.621094 499.871094 272.601562 C 493.417969 273.316406 487.105469 274.679688 480.933594 276.691406 C 474.761719 278.703125 468.859375 281.320312 463.222656 284.542969 C 460.894531 285.816406 458.472656 286.878906 455.957031 287.730469 C 455.117188 288.023438 453.976562 287.621094 453.03125 287.328125 C 452.839844 287.257812 452.765625 286.316406 452.875 285.789062 C 453.066406 284.730469 453.375 283.707031 453.804688 282.71875 C 462.804688 263.757812 471.925781 244.859375 480.777344 225.871094 C 482.914062 221.289062 486.171875 217.859375 489.863281 214.691406 C 494.347656 210.855469 498.789062 206.871094 503.492188 203.246094 C 516.753906 193.042969 525.097656 179.359375 530.957031 164.097656 C 536.007812 151.039062 541.261719 137.996094 543.3125 123.976562 C 543.851562 121.328125 544.664062 118.761719 545.746094 116.285156 C 553.535156 95.558594 554.296875 74.148438 550.960938 52.636719 C 548.890625 39.277344 546.984375 26.058594 548.554688 12.53125 C 548.75 9.832031 548.625 7.144531 548.183594 4.472656 C 547.996094 3.023438 547.554688 1.214844 546.542969 0.328125 C 545.160156 -0.878906 543.570312 0.238281 542.472656 1.453125 C 537.082031 7.464844 531.421875 13.273438 526.457031 19.625 C 521.492188 25.972656 517.253906 32.855469 512.722656 39.519531 C 506.007812 49.324219 499.960938 59.4375 496.148438 70.824219 C 492.90625 80.542969 488.761719 89.964844 485.667969 99.722656 C 480.109375 117.296875 477.179688 135.183594 479.636719 153.792969 C 481.558594 168.167969 483.105469 182.617188 482.035156 197.25 C 481.675781 202.167969 481.347656 206.960938 479.476562 211.441406 C 473.53125 225.71875 468.84375 240.578125 460.570312 253.878906 C 458.03125 257.964844 456.527344 262.691406 454.476562 267.09375 C 453.375 269.539062 452.128906 271.90625 450.734375 274.195312 C 450.398438 274.609375 449.992188 274.929688 449.515625 275.167969 C 449.039062 275.402344 448.535156 275.527344 448.003906 275.542969 C 447.566406 275.414062 447.1875 275.191406 446.863281 274.863281 C 446.542969 274.539062 446.320312 274.15625 446.199219 273.714844 C 444.949219 259.347656 437.859375 247.058594 432.226562 234.269531 C 430.019531 229.277344 426.652344 225.089844 423.15625 220.9375 C 407.5625 202.386719 392.039062 183.78125 376.585938 165.132812 C 370.382812 157.585938 365.234375 149.382812 361.140625 140.511719 C 359.84375 137.71875 356.65625 137.78125 354.960938 140.652344 C 353.59375 142.890625 351.847656 145.324219 351.519531 147.828125 C 349.691406 161.65625 347.394531 175.492188 352.183594 189.304688 C 353.574219 193.300781 354.054688 197.714844 354.394531 202.011719 C 355.617188 216.917969 360.910156 230.164062 369.414062 242.390625 C 379.574219 257.019531 390.980469 270.636719 402.519531 284.144531 C 407.40625 289.871094 412.433594 295.492188 417.464844 301.105469 C 422.6875 306.917969 421.375 315.5 426.21875 321.519531 C 427.605469 323.246094 427.265625 325.5625 426.289062 327.664062 C 422.667969 335.480469 420.113281 343.558594 415.132812 350.898438 C 408.816406 360.191406 404.597656 370.878906 399.03125 380.722656 C 389.253906 398.003906 379.566406 415.359375 367.332031 431.105469 C 367.054688 431.460938 366.410156 431.582031 365.910156 431.699219 C 364.902344 431.941406 364.410156 431.265625 364.527344 429.789062 C 364.566406 429.253906 364.792969 428.742188 364.882812 428.21875 C 367.851562 412.324219 369.40625 396.292969 369.546875 380.125 C 369.648438 369.128906 367.035156 358.789062 365.09375 348.238281 C 364.535156 345.558594 363.496094 343.078125 361.980469 340.796875 C 350.457031 323.003906 342.078125 303.808594 335.964844 283.550781 C 335.078125 281.011719 333.863281 278.640625 332.316406 276.441406 C 331.972656 275.90625 330.171875 275.652344 329.46875 276.097656 C 325.714844 278.320312 322.480469 281.21875 320.789062 285.332031 C 316.496094 295.800781 311.5625 306.058594 309.019531 317.160156 C 306.582031 327.820312 308.097656 338.605469 308.871094 349.273438 C 309.429688 357.367188 310.765625 365.328125 312.878906 373.164062 C 317.742188 390.828125 322.136719 408.59375 328.375 425.914062 C 334.710938 443.472656 336.113281 461.652344 328.507812 479.609375 C 326.609375 484.058594 324.171875 488.195312 321.195312 492.007812 C 309.726562 506.929688 297.828125 521.46875 285.300781 535.507812 C 281.835938 539.628906 277.972656 543.339844 273.710938 546.632812 C 269.386719 549.882812 265.515625 553.605469 262.105469 557.800781 C 255.515625 565.757812 247.9375 572.589844 240.214844 579.332031 C 232.488281 586.074219 224.980469 592.988281 217.191406 599.613281 C 213.957031 602.375 211.613281 606.652344 206.539062 606.667969 C 206.582031 601.734375 210.886719 599.441406 213.300781 596.039062 C 221.75 584.15625 229.589844 571.988281 234.453125 558.089844 C 237.488281 549.429688 241.15625 540.964844 243.757812 532.1875 C 247.589844 519.300781 250.824219 506.21875 254.035156 493.160156 C 254.792969 490.089844 254.578125 486.71875 254.535156 483.507812 C 254.050781 463.09375 253.507812 442.675781 252.914062 422.257812 C 252.667969 413.628906 252.265625 405.027344 251.707031 396.453125 C 251.613281 395.671875 251.378906 394.941406 250.996094 394.253906 C 250.617188 393.570312 250.117188 392.984375 249.503906 392.496094 C 247.726562 391.207031 246.648438 393.097656 246.0625 394.390625 C 240.617188 406.839844 232.269531 417.324219 224.023438 427.964844 C 215.453125 439.011719 207.703125 450.695312 203.191406 464.203125 C 202.171875 467.265625 200.925781 470.355469 200.589844 473.523438 C 199.710938 481.691406 196.816406 489.253906 194.042969 496.832031 C 192.871094 500.011719 193.429688 505.351562 188.566406 505.371094 C 185.132812 505.375 184.539062 500.757812 182.640625 498.238281 C 180.742188 495.71875 178.589844 493.140625 177.128906 490.296875 C 172.863281 482.011719 166.78125 475.230469 160.425781 468.59375 C 152.949219 460.832031 144.972656 453.421875 140.203125 443.550781 C 137.570312 438.078125 131.789062 437.109375 127.980469 433.449219 C 125.722656 431.28125 124.152344 433.4375 122.457031 434.488281 C 121.976562 434.773438 121.617188 435.167969 121.378906 435.671875 C 116.679688 447.214844 113.015625 458.867188 118.046875 471.3125 C 118.617188 467.679688 119.480469 464.066406 119.675781 460.40625 C 120.011719 454.1875 121.328125 448.480469 126.882812 441.542969 C 125.46875 452.328125 124.042969 460.621094 124.570312 469.050781 C 124.570312 471.222656 123.980469 473.222656 122.800781 475.050781 C 121.984375 476.515625 120.160156 476.300781 118.84375 475.054688 Z M 413.257812 464.785156 C 419.734375 465.074219 424.066406 460.441406 428.992188 457.527344 C 438.707031 451.773438 447.835938 445.0625 457.503906 439.257812 C 464.46875 435.125 471.816406 431.863281 479.550781 429.46875 C 487.285156 427.078125 495.191406 425.625 503.273438 425.105469 C 506.234375 424.886719 510.628906 423.140625 512.199219 426.398438 C 514.484375 431.148438 508.792969 432.199219 506.429688 434.417969 C 499.773438 440.667969 492.304688 446.058594 485.699219 452.34375 C 471.601562 465.777344 455.125 475.964844 439.03125 486.621094 C 433.191406 490.601562 426.835938 493.425781 419.964844 495.09375 C 403.75 498.664062 387.457031 502.332031 370.625 501.738281 C 365.816406 501.558594 360.996094 501.382812 356.195312 500.996094 C 355.304688 500.933594 354.453125 499.96875 352.925781 499.003906 C 356.011719 497.398438 358.691406 495.941406 361.484375 494.664062 C 372.257812 489.75 383.28125 485.3125 393.78125 479.90625 C 401.269531 476.039062 409.023438 472.054688 413.8125 464.488281 C 411.566406 463.539062 409.675781 464.527344 407.796875 465.601562 C 397.089844 471.71875 386.652344 478.449219 375.023438 482.867188 C 371.109375 484.359375 367.777344 487.644531 363.101562 486.925781 C 363.324219 481.355469 368.25 479.402344 371.585938 476.558594 C 385.0625 465.054688 398.667969 453.65625 415.335938 446.75 C 418.285156 445.523438 420.84375 443.390625 423.679688 441.855469 C 434.148438 436.207031 445.546875 433.105469 456.921875 429.96875 C 457.207031 429.890625 457.8125 430.453125 458.035156 430.84375 C 458.210938 431.261719 458.171875 431.652344 457.910156 432.023438 C 456.6875 433.078125 455.410156 434.0625 454.078125 434.976562 C 444.273438 441.601562 434.632812 448.453125 423.914062 453.632812 C 419.105469 455.960938 414.074219 458.460938 413.257812 464.785156 Z M 242.957031 469.226562 C 244.441406 465.199219 244.867188 460.582031 249.460938 455.886719 C 250.082031 464.054688 249.992188 472.21875 249.1875 480.371094 C 248.382812 488.523438 246.875 496.546875 244.667969 504.4375 C 244.554688 504.742188 243.488281 505.15625 243.34375 505.019531 C 242.601562 504.40625 241.421875 503.535156 241.488281 502.863281 C 241.746094 500.800781 242.214844 498.785156 242.890625 496.820312 C 244.886719 490.503906 245.011719 484.335938 241.699219 478.375 C 240.617188 484.164062 238.960938 489.753906 238.535156 495.773438 C 237.839844 503.773438 236.339844 511.621094 234.039062 519.3125 C 227.757812 541.617188 218.351562 562.761719 209.617188 584.609375 C 207.6875 581.15625 207.484375 578.132812 207.621094 574.929688 C 207.796875 571.195312 207.765625 567.460938 207.527344 563.734375 C 207.066406 556.734375 205.96875 549.839844 204.226562 543.046875 C 202.484375 536.253906 200.128906 529.675781 197.167969 523.320312 C 196.324219 521.632812 195.828125 519.847656 195.679688 517.964844 C 195.527344 516.085938 195.730469 514.242188 196.289062 512.441406 C 202.925781 489.019531 212.605469 466.929688 225.320312 446.171875 C 230.335938 437.953125 235.109375 429.53125 240.003906 421.214844 C 240.546875 420.289062 240.890625 419.15625 241.644531 418.480469 C 242.003906 418.136719 242.421875 417.882812 242.894531 417.722656 C 243.363281 417.5625 243.847656 417.503906 244.34375 417.554688 C 245.019531 417.757812 245.980469 419.273438 245.78125 419.832031 C 243.363281 426.597656 244.054688 433.660156 243.628906 440.574219 C 243.167969 448.636719 243.5 456.644531 241.878906 464.628906 C 241.683594 466.003906 242.59375 467.675781 242.957031 469.226562 Z M 614.828125 332.933594 C 607.054688 336.238281 601.292969 339.238281 595.1875 341.160156 C 575.683594 347.285156 555.929688 348.222656 536.921875 339.96875 C 526.617188 335.488281 516.84375 329.726562 506.1875 325.902344 C 504.6875 325.292969 503.304688 324.480469 502.046875 323.460938 C 496.070312 318.855469 489.738281 314.808594 483.050781 311.316406 C 476.363281 307.820312 469.421875 304.9375 462.230469 302.664062 C 461.179688 302.390625 460.222656 301.921875 459.363281 301.261719 C 458.539062 300.625 458.070312 299.792969 457.949219 298.765625 C 458.015625 298.242188 458.191406 297.761719 458.480469 297.324219 C 458.765625 296.882812 459.136719 296.527344 459.585938 296.257812 C 483.015625 285.375 506.988281 278.707031 532.882812 286.894531 C 535.921875 287.855469 539.183594 288.117188 542.335938 288.738281 C 550.332031 290.3125 557.835938 292.910156 564.585938 297.730469 C 580.742188 309.179688 597.03125 320.460938 614.828125 332.933594 Z M 451.480469 550.378906 C 453.714844 549.125 454.992188 548.015625 456.46875 547.640625 C 465.09375 545.550781 473.484375 542.757812 481.640625 539.265625 C 489.800781 535.769531 497.609375 531.621094 505.074219 526.820312 C 508.222656 524.796875 511.53125 523.074219 515 521.660156 C 532.980469 514.46875 551.296875 508.601562 570.675781 506.113281 C 576.585938 505.363281 582.46875 506.378906 588.257812 505.097656 C 598.40625 502.847656 608.480469 505.230469 618.589844 505.679688 C 619.089844 505.800781 619.535156 506.027344 619.929688 506.363281 C 620.324219 506.695312 620.625 507.101562 620.828125 507.574219 C 621.144531 508.351562 620.777344 509.496094 620.492188 510.414062 C 620.242188 510.914062 619.855469 511.265625 619.335938 511.472656 C 601.789062 519.890625 588.34375 534.359375 571.265625 543.675781 C 561.398438 549.054688 551.949219 554.511719 541.203125 558.382812 C 519.355469 566.253906 497.742188 563.414062 476.097656 559.585938 C 467.808594 558.132812 459.734375 554.792969 451.472656 550.375 Z M 273.238281 729.742188 C 268.550781 728.011719 266.375 727.539062 264.515625 726.527344 C 245.816406 715.832031 227.960938 704.078125 214.28125 686.980469 C 208.921875 680.265625 203.167969 673.835938 198.144531 666.882812 C 196.636719 664.660156 194.84375 662.691406 192.777344 660.980469 C 190.707031 659.269531 188.4375 657.878906 185.972656 656.808594 C 183.082031 655.570312 179.796875 654.535156 178.21875 651.390625 C 177.910156 650.765625 178.414062 648.945312 178.738281 648.890625 C 182.953125 648.222656 187.191406 647.617188 191.457031 647.292969 C 201.800781 646.527344 211.976562 647.359375 221.101562 652.863281 C 227.515625 656.734375 233.972656 660.667969 239.8125 665.324219 C 266.265625 686.367188 290.539062 709.976562 316.273438 731.871094 C 318.265625 733.574219 320.625 734.964844 321.054688 738.015625 C 321.304688 739.816406 321.535156 739.199219 312.785156 738.929688 C 297.902344 738.515625 285.089844 730.226562 273.238281 729.742188 Z M 436.417969 299.402344 C 435.890625 301.125 435.269531 302.8125 434.550781 304.460938 C 434.117188 305.449219 433.441406 306.226562 432.53125 306.800781 C 431.953125 307.054688 430.550781 306.4375 430.152344 305.804688 C 426.878906 300.886719 423.335938 296.074219 420.699219 290.816406 C 417.84375 285.007812 414.4375 279.546875 410.476562 274.433594 C 399.550781 260.492188 388.976562 246.257812 377.890625 232.441406 C 362.070312 212.707031 356.734375 190.542969 361.570312 165.867188 C 361.84375 164.449219 363.199219 163.234375 364.046875 161.921875 C 365.152344 162.875 366.496094 163.664062 367.324219 164.820312 C 376.417969 177.539062 386.828125 189.160156 396.789062 201.179688 C 407.75 214.367188 419.339844 227.207031 427.730469 242.421875 C 437.980469 261.089844 440.949219 280.664062 436.417969 299.402344 Z M 340.660156 451.761719 C 340.203125 441.75 338.890625 432.703125 335.425781 424.476562 C 329.554688 410.492188 325.660156 395.929688 320.90625 381.617188 C 313.386719 359.042969 312.652344 336.183594 317.871094 313.167969 C 319.535156 305.867188 322.898438 298.953125 325.597656 291.898438 C 325.925781 291.003906 327.058594 290.414062 327.773438 289.671875 C 328.75 290.863281 330.179688 291.921875 330.609375 293.296875 C 331.234375 295.300781 331.003906 297.558594 331.390625 299.667969 C 334.085938 314.546875 337.429688 329.136719 346.789062 341.679688 C 349.269531 345.007812 350.320312 349.476562 351.652344 353.535156 C 353.121094 358.136719 353.308594 363.292969 355.464844 367.5 C 361.234375 378.625 361.953125 390.015625 359.394531 401.972656 C 358.988281 403.546875 358.75 405.144531 358.679688 406.769531 C 358.75 418.429688 354.3125 428.882812 350.082031 439.398438 C 349.128906 441.863281 347.851562 444.148438 346.25 446.25 C 344.648438 448.355469 342.785156 450.191406 340.660156 451.761719 Z M 193.167969 610.1875 C 191.910156 608.167969 190.699219 606.953125 190.3125 605.527344 C 187.03125 593.546875 181.996094 582.355469 175.207031 571.953125 C 169.6875 563.371094 163.914062 554.984375 158.5625 546.308594 C 153.464844 538.097656 148.566406 529.9375 142.453125 522.351562 C 136.335938 514.761719 133.136719 505.71875 131.371094 495.882812 C 129.292969 484.140625 130.113281 472.328125 129.234375 460.585938 C 129.214844 459.484375 129.476562 458.453125 130.027344 457.492188 C 130.585938 456.667969 131.285156 455.988281 132.125 455.449219 C 132.621094 455.652344 133.011719 455.976562 133.300781 456.429688 C 140.710938 470.136719 147.808594 484.097656 159.386719 494.886719 C 179.335938 513.46875 190.617188 537.027344 197.914062 562.613281 C 202.503906 578.511719 200.527344 594.363281 193.175781 610.171875 Z M 440.371094 712.46875 C 439.847656 712.386719 439.347656 712.234375 438.867188 712.011719 C 423.761719 702.488281 410.382812 690.964844 398.726562 677.4375 C 387.289062 664.078125 381.761719 648.996094 383.65625 631.433594 C 385.128906 617.703125 381.125 604.828125 377.921875 591.8125 C 377.042969 588.222656 373.734375 585.429688 374.546875 581.308594 C 379.09375 580.816406 382.664062 583.835938 385.492188 586.140625 C 394.191406 593.25 402.988281 600.578125 408.554688 610.625 C 417.71875 627.195312 425.714844 644.183594 426.636719 663.652344 C 426.9375 670.09375 428.800781 676.230469 431.476562 682.277344 C 435.585938 691.558594 438.726562 701.265625 442.238281 710.804688 C 442.363281 711.285156 442.261719 711.714844 441.9375 712.09375 C 441.535156 712.386719 440.898438 712.359375 440.371094 712.46875 Z M 495.265625 198.585938 C 500.078125 180.851562 500.878906 164.792969 500.960938 148.683594 C 501.050781 130.421875 500.953125 112.152344 500.660156 93.875 C 500.496094 84.054688 501.234375 74.507812 505.335938 65.40625 C 512.539062 49.425781 523.925781 36.675781 536.894531 25.179688 C 537.394531 24.894531 537.898438 24.890625 538.402344 25.167969 C 538.960938 25.8125 539.722656 26.742188 539.613281 27.441406 C 538.34375 35.402344 536.394531 43.28125 535.6875 51.285156 C 534.398438 65.710938 532.054688 80.042969 530.507812 94.46875 C 529.421875 104.726562 524.363281 114.003906 524.738281 124.464844 C 525.113281 134.921875 521 144.546875 517.65625 154.121094 C 512.464844 169.132812 507.03125 184.230469 495.265625 198.585938 Z M 229.296875 650.355469 C 230.828125 649.671875 232.429688 649.273438 234.097656 649.15625 C 235.769531 649.039062 237.410156 649.210938 239.019531 649.671875 C 251.691406 652.988281 262.992188 658.347656 272.539062 667.949219 C 285.621094 681.085938 295.058594 696.839844 306.167969 711.378906 C 306.480469 711.832031 306.679688 712.328125 306.761719 712.871094 C 306.824219 713.222656 306.753906 713.78125 306.507812 713.957031 C 306.082031 714.238281 305.265625 714.550781 305.027344 714.324219 C 298.742188 709.265625 291.914062 704.726562 286.347656 698.972656 C 269.078125 681.140625 248.273438 667.5625 229.296875 650.355469 Z M 512.65625 179.558594 C 515.117188 170.148438 519.585938 163.230469 521.71875 155.726562 C 525.320312 142.902344 529.824219 130.351562 531.476562 116.828125 C 533.992188 96.710938 539.230469 76.953125 540.558594 56.609375 C 540.621094 55.71875 541.640625 54.914062 542.226562 54.066406 C 542.804688 54.828125 543.742188 55.539062 543.910156 56.351562 C 545.621094 65.042969 546.273438 73.808594 545.871094 82.65625 C 545.46875 91.503906 544.019531 100.175781 541.523438 108.671875 C 540.617188 111.757812 538.976562 114.722656 538.589844 117.855469 C 536.226562 136.835938 527.605469 153.660156 520.671875 171.066406 C 519.515625 174.179688 517.257812 176.40625 512.65625 179.558594 Z M 489.238281 190.28125 C 486.285156 184.621094 486.875 178.769531 486.328125 173.152344 C 485.859375 168.363281 486.273438 163.363281 485.160156 158.773438 C 480.835938 141.5 485.582031 124.640625 487.175781 107.671875 C 487.597656 103.25 489.371094 98.515625 493.546875 93.78125 C 494.183594 96.101562 494.929688 97.628906 494.980469 99.183594 C 495.921875 124.890625 495.835938 150.574219 493.742188 176.242188 C 493.425781 181.300781 491.925781 185.980469 489.238281 190.28125 Z M 368.261719 593.484375 C 367.804688 592.238281 368.199219 591.167969 369.425781 591.167969 C 369.902344 591.222656 370.339844 591.382812 370.742188 591.648438 C 371.140625 591.914062 371.460938 592.253906 371.695312 592.675781 C 373.289062 597.242188 374.890625 601.828125 376.082031 606.523438 C 378.207031 614.933594 378.34375 623.546875 377.957031 632.171875 C 377.890625 633.773438 377.789062 635.492188 375.953125 636.003906 C 375.640625 636.082031 374.582031 634.402344 374.300781 633.410156 C 370.578125 620.394531 369.644531 606.988281 368.261719 593.484375 Z M 176.667969 501.683594 C 162.898438 492.28125 155.398438 481.394531 147.738281 470.679688 C 147.457031 470.199219 147.339844 469.683594 147.390625 469.132812 C 147.445312 468.691406 147.652344 468.335938 148.011719 468.070312 C 148.417969 467.816406 149.246094 467.546875 149.425781 467.734375 C 155.703125 474.261719 162.15625 480.65625 168.0625 487.496094 C 170.980469 490.878906 172.796875 495.179688 176.667969 501.683594 Z M 241.554688 511.992188 C 242.5 523.609375 241.265625 533.292969 232.980469 544.730469 C 237.523438 532.398438 236.894531 522.285156 241.554688 511.992188 Z M 602.847656 346.167969 C 604.769531 343.777344 613.210938 340.554688 618.492188 340.277344 C 618.800781 340.261719 619.246094 340.882812 619.4375 341.292969 C 619.625 341.699219 619.691406 342.382812 619.484375 342.554688 C 617.445312 344.214844 615.195312 345.507812 612.738281 346.445312 C 610.28125 347.378906 607.738281 347.902344 605.109375 348.019531 C 604.59375 347.984375 604.148438 347.789062 603.769531 347.433594 C 603.410156 347.050781 603.105469 346.628906 602.847656 346.167969 Z M 602.847656 346.167969 " fill-opacity="1" fill-rule="nonzero"/></g></g></g></g><g clip-path="url(#9c9002ff2a)"><g clip-path="url(#e788abea9d)"><g clip-path="url(#8fab7c22b0)"><g clip-path="url(#ba315b321c)"><path fill="currentColor" d="M 438.324219 678.167969 L 440.425781 688.382812 C 444.988281 690.894531 445.683594 695.992188 447.957031 700.019531 C 449.738281 703.164062 450.75 706.96875 454.972656 707.949219 L 455.257812 707.796875 C 453.082031 698.128906 448.058594 689.71875 443.523438 681.097656 C 442.410156 679.003906 440.351562 678.628906 438.324219 678.167969 Z M 438.324219 678.167969 " fill-opacity="1" fill-rule="nonzero"/></g></g></g></g></svg>